/* XPM */
static char * start_xpm[] = {
"45 18 394 2",
"  	c #714443",
". 	c #683E3C",
"+ 	c #553433",
"@ 	c #512F2F",
"# 	c #4C2D2C",
"$ 	c #492B2A",
"% 	c #472A29",
"& 	c #4B2E2C",
"* 	c #5D3A37",
"= 	c #884B49",
"- 	c #BA4644",
"; 	c #AF4A47",
"> 	c #824B4A",
", 	c #744645",
"' 	c #764846",
") 	c #794B49",
"! 	c #7F4B49",
"~ 	c #8B4B4A",
"{ 	c #9B4C4A",
"] 	c #AB4946",
"^ 	c #623B3A",
"/ 	c #653E3D",
"( 	c #6F4342",
"_ 	c #6D4140",
": 	c #5A3634",
"< 	c #653F3D",
"[ 	c #8E4B49",
"} 	c #B94743",
"| 	c #C24643",
"1 	c #A54948",
"2 	c #934C4A",
"3 	c #894C4A",
"4 	c #8E4C4A",
"5 	c #9F4C49",
"6 	c #B44845",
"7 	c #C44642",
"8 	c #CC4742",
"9 	c #CD4742",
"0 	c #CE4642",
"a 	c #874C49",
"b 	c #A44C48",
"c 	c #8F4C4A",
"d 	c #804B49",
"e 	c #704443",
"f 	c #5F3B39",
"g 	c #513030",
"h 	c #4D2E2D",
"i 	c #593734",
"j 	c #794A48",
"k 	c #A54B48",
"l 	c #744746",
"m 	c #643D3C",
"n 	c #964C49",
"o 	c #B44846",
"p 	c #BD4842",
"q 	c #BB4744",
"r 	c #FFFFFF",
"s 	c #5D3836",
"t 	c #613A39",
"u 	c #593534",
"v 	c #724644",
"w 	c #AC4947",
"x 	c #BE4742",
"y 	c #A74A48",
"z 	c #884D4A",
"A 	c #924C4A",
"B 	c #AD4947",
"C 	c #B84844",
"D 	c #C04642",
"E 	c #C54742",
"F 	c #C84542",
"G 	c #864D4A",
"H 	c #914D4A",
"I 	c #E6605B",
"J 	c #DF5E59",
"K 	c #D95A56",
"L 	c #CA524F",
"M 	c #B04643",
"N 	c #953B39",
"O 	c #8C3835",
"P 	c #A4403E",
"Q 	c #C2504C",
"R 	c #9F3F3C",
"S 	c #7B2E2D",
"T 	c #7A2D2C",
"U 	c #8C3634",
"V 	c #A84541",
"W 	c #CB5350",
"X 	c #E25D58",
"Y 	c #E3605C",
"Z 	c #E05E59",
"` 	c #CF5351",
" .	c #782D2B",
"..	c #6E2827",
"+.	c #6B2826",
"@.	c #712B29",
"#.	c #7B2F2D",
"$.	c #853330",
"%.	c #B64947",
"&.	c #DF5A58",
"*.	c #DB5B57",
"=.	c #C14E4B",
"-.	c #D45652",
";.	c #DF5B59",
">.	c #E75F5B",
",.	c #E8605C",
"'.	c #E9625D",
").	c #964C4A",
"!.	c #914C4B",
"~.	c #DC5B58",
"{.	c #C85350",
"].	c #C7514F",
"^.	c #C3504D",
"/.	c #B84C49",
"(.	c #A74341",
"_.	c #963C39",
":.	c #943A38",
"<.	c #983D3A",
"[.	c #8D3836",
"}.	c #7A2F2D",
"|.	c #6C2827",
"1.	c #692725",
"2.	c #813431",
"3.	c #AC4744",
"4.	c #C5514E",
"5.	c #C95451",
"6.	c #C7524F",
"7.	c #C1504C",
"8.	c #B24946",
"9.	c #662826",
"0.	c #5F2321",
"a.	c #602422",
"b.	c #6C2927",
"c.	c #7F3230",
"d.	c #AB4643",
"e.	c #B94D49",
"f.	c #A74541",
"g.	c #B84B49",
"h.	c #C5534F",
"i.	c #CA5552",
"j.	c #CC5451",
"k.	c #8C4C4B",
"l.	c #984C4A",
"m.	c #914B4A",
"n.	c #C85250",
"o.	c #C5524F",
"p.	c #BB4D4B",
"q.	c #A0403D",
"r.	c #973E3A",
"s.	c #903A38",
"t.	c #823332",
"u.	c #712D2A",
"v.	c #7D312F",
"w.	c #A4423F",
"x.	c #C0504C",
"y.	c #C85451",
"z.	c #B64B48",
"A.	c #792F2D",
"B.	c #7E312F",
"C.	c #7F3130",
"D.	c #943C39",
"E.	c #B74C49",
"F.	c #B04945",
"G.	c #A94542",
"H.	c #C2504D",
"I.	c #CA534F",
"J.	c #8A4D4B",
"K.	c #734846",
"L.	c #994C4A",
"M.	c #C95351",
"N.	c #BE4F4B",
"O.	c #A3423F",
"P.	c #8C3936",
"Q.	c #782F2C",
"R.	c #9E413E",
"S.	c #C6524F",
"T.	c #C14F4D",
"U.	c #B94D4A",
"V.	c #A2413E",
"W.	c #B14845",
"X.	c #B44A47",
"Y.	c #B54B48",
"Z.	c #AE4946",
"`.	c #AF4844",
" +	c #BD4E4A",
".+	c #A1413E",
"++	c #C75350",
"@+	c #724745",
"#+	c #934B4B",
"$+	c #DC5C58",
"%+	c #9B3F3C",
"&+	c #833432",
"*+	c #782E2C",
"=+	c #813231",
"-+	c #C3524E",
";+	c #B14A46",
">+	c #A64240",
",+	c #9F413F",
"'+	c #9C3F3D",
")+	c #AA4542",
"!+	c #BC4D49",
"~+	c #BE504B",
"{+	c #BB4F4B",
"]+	c #C2514D",
"^+	c #BF4F4B",
"/+	c #9E403E",
"(+	c #A54340",
"_+	c #C4514E",
":+	c #704644",
"<+	c #DE5A58",
"[+	c #BA4E4A",
"}+	c #A64440",
"|+	c #823532",
"1+	c #7B302E",
"2+	c #7C312F",
"3+	c #863532",
"4+	c #913B39",
"5+	c #9F423F",
"6+	c #AB4844",
"7+	c #B74B48",
"8+	c #B04844",
"9+	c #913936",
"0+	c #833532",
"a+	c #712B2A",
"b+	c #6B2726",
"c+	c #A64441",
"d+	c #BE4E4A",
"e+	c #C14F4C",
"f+	c #933B38",
"g+	c #C75450",
"h+	c #C3514D",
"i+	c #C04E4B",
"j+	c #7D4C49",
"k+	c #6C4240",
"l+	c #9A4D4A",
"m+	c #944C4B",
"n+	c #AC4844",
"o+	c #9A3E3B",
"p+	c #8B3735",
"q+	c #772D2B",
"r+	c #8F3937",
"s+	c #9A403C",
"t+	c #9D403D",
"u+	c #7B312E",
"v+	c #722C2A",
"w+	c #652725",
"x+	c #632624",
"y+	c #883734",
"z+	c #99403C",
"A+	c #8B3835",
"B+	c #BB4C48",
"C+	c #C4524E",
"D+	c #B24A46",
"E+	c #643D3D",
"F+	c #DE5B58",
"G+	c #923937",
"H+	c #672726",
"I+	c #652625",
"J+	c #722C2B",
"K+	c #7F3531",
"L+	c #8A3835",
"M+	c #8E3A37",
"N+	c #752E2C",
"O+	c #6E2B28",
"P+	c #702C29",
"Q+	c #742D2B",
"R+	c #9C403D",
"S+	c #AB4744",
"T+	c #66403E",
"U+	c #593737",
"V+	c #E05D59",
"W+	c #CC5551",
"X+	c #CB5450",
"Y+	c #592020",
"Z+	c #5F2322",
"`+	c #752D2C",
" @	c #4E1B19",
".@	c #4E1C1A",
"+@	c #8E3937",
"@@	c #933A38",
"#@	c #79302D",
"$@	c #7D332F",
"%@	c #C3514E",
"&@	c #983E3B",
"*@	c #583636",
"=@	c #4C2F2E",
"-@	c #974C4A",
";@	c #934D4B",
">@	c #CD5451",
",@	c #903C38",
"'@	c #662625",
")@	c #612523",
"!@	c #953D39",
"~@	c #55201E",
"{@	c #531E1C",
"]@	c #58201F",
"^@	c #A2423F",
"/@	c #7E3230",
"(@	c #8A3734",
"_@	c #B64C49",
":@	c #A44340",
"<@	c #953B38",
"[@	c #873532",
"}@	c #4B2D2C",
"|@	c #3E2725",
"1@	c #8C4D4B",
"2@	c #803330",
"3@	c #AA4643",
"4@	c #AC4544",
"5@	c #FFFFFD",
"6@	c #A84642",
"7@	c #823331",
"8@	c #C04F4B",
"9@	c #A54641",
"0@	c #7D2F2E",
"a@	c #412827",
"b@	c #35201F",
"c@	c #774948",
"d@	c #CF5752",
"e@	c #C6534F",
"f@	c #BD4F4A",
"g@	c #8D3936",
"h@	c #8E3836",
"i@	c #843633",
"j@	c #993E3B",
"k@	c #8C3735",
"l@	c #762F2D",
"m@	c #712929",
"n@	c #3E2524",
"o@	c #301C1B",
"p@	c #633C3B",
"q@	c #AA4743",
"r@	c #A0413D",
"s@	c #B04845",
"t@	c #732D2B",
"u@	c #3B2222",
"v@	c #2F1B1A",
"w@	c #412424",
"x@	c #563534",
"y@	c #B14744",
"z@	c #B54A47",
"A@	c #923A37",
"B@	c #642624",
"C@	c #392121",
"D@	c #331E1D",
"E@	c #422725",
"F@	c #613C3A",
"G@	c #6E4442",
"H@	c #7B4C4A",
"I@	c #874B4A",
"J@	c #744847",
"K@	c #633C3C",
"L@	c #5C3738",
"M@	c #7D4B49",
"N@	c #663F3E",
"O@	c #794949",
"P@	c #844B4B",
"Q@	c #844C4B",
"R@	c #6A4241",
"S@	c #5A3635",
"T@	c #563434",
"U@	c #442727",
"V@	c #68403F",
"W@	c #482B2A",
"X@	c #382020",
"Y@	c #2A1818",
"Z@	c #321D1C",
"`@	c #462928",
" #	c #4F302F",
".#	c #5E3A39",
"+#	c #6A4342",
"@#	c #6D4241",
"##	c #6B4342",
"$#	c #694140",
"%#	c #643F3D",
"&#	c #5B3936",
"*#	c #503130",
"=#	c #4E302F",
"-#	c #553434",
";#	c #5F3B3A",
">#	c #5D3938",
",#	c #452A28",
"'#	c #603C3A",
")#	c #67403F",
"!#	c #694240",
"~#	c #694241",
"{#	c #573535",
"]#	c #4A2D2C",
"^#	c #472C2A",
"/#	c #4B2F2D",
"(#	c #3D2424",
"_#	c #372020",
":#	c #372120",
"<#	c #4C2E2D",
"  . + @ # $ % & * = - ; > , ' ) ! ~ { ] ] ~ ^ / ( _ ^ : < [ } | } 1 2 3 = 4 5 6 7 8 9 9 0 ",
"a b c d e f g h i j k 5 l m , a n k o p q 5 r r s t ^ s u v w x y [ z A 5 B C D E F F F E ",
"G H I J K L M N O P Q Q R S T U V W X Y Z ` r r  ...+.@.#.$.%.&.*.Q =.-.;.Y >.,.'.'.'.; c ",
").!.~.{.].^./.(._.:.<.[.}.|.1.2.3.4.5.6.7.8.r r #.@.9.0.a.b.c.d.4.e.f.g.h.L W W i.j.j.k.l ",
"l.m.*.{.n.o.p.3.q.r.s.t.u.v.w.x.5.y.o.x.z.r r r r A.B.2.v.}.C.D.E.4.F.G.H.L I.5.5.5.5.J.K.",
"L.H *.L M.o.N.8.O.P.Q.B.R.p.6.{.S.T.U.F.V.r r r r O.W.X.Y.Z.O.R.`.^. +.+X.++5.5.5.5.5.J.@+",
"L.#+$+{.{.7.8.%+&+*+=+r.`. +^.-+x.U.;+f.%+r r r r V.>+,+'+)+!+~+{+]+^+/+(+_+W 5.5.{.S.G :+",
"l.#+<+{.n.[+}+s.|+1+2+3+4+5+6+X.7+z.8+}+r r r r r r 9+0+a+b+c.c+d+e+%.f+G.4.W 5.g+h+i+j+k+",
"l+m+<+{.L ^+n+o+p+C.*+q+1+0+r+s+O.f.(+t+r r r r r r v.u+v+w+x+9.y+.+z+A+B+L 5.5.C+U.D+K.E+",
"{ m+F+M.5.L -+g.(.G+1+H+a.I+J+K+L+M+[.r r r r r r r r N+c.B.O+P+v+Q+B.R+_+W y.4.U.S+.+T+U+",
"{ m+V+W+5.5.X+5.-+8.s.b.Y+Z+b.`+1+B.r r r r  @.@r r r r +@<.@@#@$@y+f+W.S.L %@z.f.&@P.*@=@",
"-@;@V+>@j.X+5.j.{./.,@'@)@*+p+N <.!@r r r ~@{@]@x+r r r V.3.F.^@/@(@V.E.4.o._@:@<@[@1+}@|@",
"3 1@<+W+j.j.i.i.j.h.6+1+I+2@'+3@4@r r r r P+O+u.}.r r 5@r 7+^+N.6@7@<@8.8@ +9@[.&+0@@.a@b@",
"( c@d@e@W X+i.j.j.W+W f@_.O+7@w.X.r r r r g@[.h@f+r r r r N.C+S.7.G.i@j@F.d.k@Q+l@1+m@n@o@",
"g p@[+[+_+L W i.j.>@>@j._+q@C.=+r r r r :._.r@c+d.s@r r r r 5.5.S.N.O.|++@M+t@w+Q.3+Q+u@v@",
"w@x@y@z.]+{.i.W+>@>@>@W+g+ +q.7@r r !+`.N h@:@z@{+^+]+o.r r i.++8@z.)+A@Q.v+B@H+p+9+a+C@D@",
"v@E@F@G@H@I@J.k.k.k.k.3 > J@K@L@r c@M@K.F@x@N@O@> P@I@3 J.r Q@) R@f S@T@h U@n@& V@f W@n@X@",
"Y@Z@`@ #.#N@+#@#@###$#%#&#*#=#-#;#%#E+># #,#=#'#)#!#R@####~#K@{#]#^#/#W@(#_#:#]#L@<#X@o@v@"};
